<svg version="1.2" xmlns="http://www.w3.org/2000/svg" viewBox="0 0 190 35" width="190" height="35"><style></style><path  d="m2.1 3.7v2.6h11.8l0.1 20.4h5.6l-0.1-20.4h11.9v-2.6zm30.3 13.9v2.5h13.2v-2.5zm20.5 2.1l-4.5 1.5q1.5 1.5 3.9 2.9 2.5 1.3 5.6 2.1 3.3 0.8 7 0.8 2.8 0 5.3-0.4 2.5-0.5 4.5-1.4 2.1-0.8 3.2-2 1.2-1.2 1.2-2.8 0-1.5-1.2-2.7-1.1-1.1-2.9-1.9-1.7-0.8-3.7-1.3-2.1-0.6-3.9-0.9-4-0.7-6.4-1.4-2.3-0.7-3.3-1.5-1-0.8-1-1.8 0-1.1 1.7-2 1.7-0.9 5.5-0.9 2.7 0 4.5 0.5 1.9 0.5 3.3 1.4 1.3 0.8 2.1 1.6l4.8-1.3q-1.1-1.3-3.1-2.3-1.9-1.2-4.8-1.8-2.7-0.8-6.5-0.8-3.9 0-6.9 0.8-3 0.8-4.8 2.1-1.7 1.4-1.7 3.1 0 1.6 1.2 2.6 1.3 1.1 3.2 1.9 1.9 0.7 4 1.2 2.1 0.5 3.8 0.8 2.7 0.4 5 1 2.4 0.6 3.8 1.5 1.5 0.9 1.5 2.5 0 1.5-2.3 2.6-2.2 1-5.9 1-2.8 0-4.9-0.6-2.2-0.6-4-1.6-1.7-1.1-3.3-2.5zm39.4 7l-0.1-25.7h-5.3l0.1 25.7zm14.1-9.2v9.2h5.3v-9.6q0-1.9-1.3-3.2-1.3-1.4-3.7-2-2.3-0.7-5.4-0.7-3.2 0-5.6 0.8-2.4 0.9-3.8 2.3-1.4 1.4-1.4 3.2h1.8q0-1.1 0.9-2 1-0.8 2.7-1.3 1.8-0.5 4.1-0.5 3.2 0 4.8 0.9 1.6 1 1.6 2.9zm12.5 1.6q0.1 2.3 2.1 4.1 2.1 1.8 5.7 2.8 3.5 1 7.9 1 4.5 0 8-1 3.6-1 5.6-2.8 2.1-1.8 2.1-4.1 0-2.3-2.1-4.1-2-1.7-5.6-2.8-3.5-1-8-1-4.4 0-8 1-3.5 1.1-5.6 2.8-2.1 1.8-2.1 4.1zm5.4 0q0-1.6 1.3-2.8 1.4-1.2 3.7-1.9 2.4-0.7 5.3-0.7 3 0 5.3 0.7 2.4 0.7 3.7 1.9 1.4 1.2 1.4 2.8 0 1.6-1.4 2.8-1.3 1.2-3.7 2-2.3 0.7-5.3 0.7-2.9 0-5.3-0.7-2.3-0.8-3.7-2-1.3-1.2-1.3-2.8zm33 14.8h5.2v-22.3h-5.3zm30.6-14.9q0-2.4-2-4.2-2.1-1.7-5.5-2.7-3.4-1-7.5-1-3.8 0-6.7 1-2.8 1-4.4 2.7-1.6 1.8-1.6 4.2 0 2.5 1.6 4.3 1.6 1.7 4.5 2.7 2.9 0.9 6.6 0.9 4.2 0 7.5-0.9 3.5-1 5.5-2.7 2-1.8 2-4.3zm-5.3 0q0 1.8-1.5 3-1.3 1.2-3.7 1.8-2.3 0.7-5.1 0.7-2.4 0-4.6-0.7-2.2-0.6-3.7-1.8-1.4-1.2-1.4-3 0-1.7 1.4-2.9 1.4-1.2 3.7-1.9 2.2-0.6 4.5-0.6 2.9 0 5.2 0.6 2.3 0.7 3.7 1.9 1.5 1.2 1.5 2.9z"/></svg>